# xmcd
#
# Track frame offsets: 
#        150
#        29175
#        50131
#        72032
#        94279
#        116405
#        136911
#        167984
#        189682
#        221369
#
# Disc length: 3204 seconds
#
# Revision: 2
# Processed by: cddbd v1.5.2PL0 Copyright (c) Steve Scherf et al.
# Submitted via: ExactAudioCopy v0.95b4
#
DISCID=980c820a
DTITLE=Various Artist - Jazz for a Night on the Town [CD1]
DYEAR=2003
DGENRE=Jazz
TTITLE0=Red Rodney - Blues in the Guts
TTITLE1=Kenny Barron - Swamp Demon
TTITLE2=Joe Chambers - Catta
TTITLE3=Sonny Stitt - The Night Has a Thousand Eyes
TTITLE4=Charles Earland - Grant's Groove
TTITLE5=Pat Martino - The Visit
TTITLE6=Richie Cole - Hi-Fly
TTITLE7=Woody Shaw - Spiderman Blues
TTITLE8=Vincent Herring - The Dark Side of Dewey
TTITLE9=Bobby Hutcherson - Color Scheme
EXTD=YEAR: 2003
EXTT0=
EXTT1=
EXTT2=
EXTT3=
EXTT4=
EXTT5=
EXTT6=
EXTT7=
EXTT8=
EXTT9=
PLAYORDER=
